<?xml version="1.0" encoding="UTF-8" standalone="no"?>
<svg
   version="1.0"
   width="983.15015pt"
   height="611.08844pt"
   viewBox="0 0 983.15015 611.08844"
   preserveAspectRatio="xMidYMid meet"
   id="svg14"
   sodipodi:docname="firstFloor.svg"
   inkscape:version="1.1.2 (b8e25be833, 2022-02-05)"
   xmlns:inkscape="http://www.inkscape.org/namespaces/inkscape"
   xmlns:sodipodi="http://sodipodi.sourceforge.net/DTD/sodipodi-0.dtd"
   xmlns="http://www.w3.org/2000/svg"
   xmlns:svg="http://www.w3.org/2000/svg">
  <defs
     id="defs18">
    <rect
       x="759.70798"
       y="99.66466"
       width="97.784195"
       height="41.370236"
       id="rect4925" />
    <rect
       x="707.05495"
       y="95.90373"
       width="165.48095"
       height="62.055355"
       id="rect1883" />
    <rect
       x="707.05493"
       y="95.903732"
       width="165.48096"
       height="62.055355"
       id="rect1883-2" />
  </defs>
  <sodipodi:namedview
     id="namedview16"
     pagecolor="#ffffff"
     bordercolor="#666666"
     borderopacity="1.0"
     inkscape:pageshadow="2"
     inkscape:pageopacity="0.0"
     inkscape:pagecheckerboard="0"
     inkscape:document-units="pt"
     showgrid="false"
     inkscape:zoom="0.75205512"
     inkscape:cx="301.83958"
     inkscape:cy="297.85051"
     inkscape:window-width="2560"
     inkscape:window-height="1377"
     inkscape:window-x="1"
     inkscape:window-y="-2168"
     inkscape:window-maximized="1"
     inkscape:current-layer="layer2" />
  <metadata
     id="metadata2">
Created by potrace 1.16, written by Peter Selinger 2001-2019
</metadata>
  <g
     transform="matrix(0.10434069,0,0,-0.05531661,-57.126528,627.84352)"
     fill="#008b10"
     stroke="none"
     id="g12">
    <path
       d="m 6720,11240 v -110 H 3635 550 l -1,-2892 c -2,-3720 -2,-5191 0,-5560 l 1,-298 h 810 810 V 1680 980 h 472 472 l 615,-201 c 339,-110 809,-263 1044,-341 236,-77 431,-138 433,-135 3,2 54,177 114,388 l 110,384 v 647 648 h 2040 2040 v 2620 2620 h 230 230 v 880 880 h -228 -228 v 875 l 1,875 h -257 -258 v 115 115 H 7860 6720 Z m 1880,80 c 0,-20 -7,-20 -740,-20 -733,0 -740,0 -740,20 0,20 7,20 740,20 733,0 740,0 740,-20 z m 0,-55 v -25 h -740 -740 v 25 25 h 740 740 z m -1536,-35 c 15,0 16,-3 6,-15 -11,-13 -8,-15 20,-15 28,0 31,2 20,15 -11,13 76,15 771,15 431,0 834,1 894,2 l 110,1 3,-112 3,-111 h 254 255 v -587 c 0,-457 -3,-584 -12,-575 -19,19 -28,14 -28,-18 0,-32 9,-37 28,-18 9,9 12,-51 12,-270 v -282 h -59 -58 l -7,-399 c -4,-219 -4,-566 0,-770 l 7,-371 h 53 54 V 6807 5894 H 8245 c -630,1 -1145,3 -1145,6 0,4 5,11 12,18 9,9 4,12 -22,12 -26,0 -31,-3 -22,-12 7,-7 12,-15 12,-18 0,-4 -185,-7 -412,-9 -227,-1 -414,-3 -415,-5 -2,-2 -3,-160 -3,-352 V 4458 3730 h 285 285 v -177 c 0,-175 0,-176 -20,-158 -20,18 -20,17 -20,-20 0,-37 0,-38 20,-20 20,18 20,17 20,-423 v -442 h -170 -170 l -2,348 -3,347 -60,1 -60,1 58,-4 57,-4 v -344 -345 h -345 -345 l -2,68 -2,67 -3,-68 -4,-67 h -96 c -84,0 -94,2 -83,15 11,13 8,15 -20,15 -28,0 -31,-2 -20,-15 11,-13 -50,-15 -539,-15 h -551 v 105 105 h -75 -75 v -105 -105 h -907 c -705,0 -904,3 -895,12 18,18 15,23 -18,23 -33,0 -36,-5 -18,-23 9,-9 -190,-12 -898,-12 H 665 l -1,845 c -1,465 2,845 5,845 4,0 12,-5 19,-12 9,-9 12,-4 12,22 0,26 -3,31 -12,22 -7,-7 -15,-12 -18,-12 -3,0 -6,371 -6,825 v 825 h 243 243 v 645 645 h 23 24 l 6,452 c 4,248 7,552 7,675 0,221 0,224 -21,221 -20,-3 -20,-7 -19,-370 V 7750 H 920 670 v 346 c 0,307 2,345 15,334 13,-11 15,-8 15,14 v 26 h 225 225 l -2,1023 c -2,564 -5,879 -8,702 l -5,-320 -112,-3 -113,-3 v 343 343 l 112,112 113,113 h 197 198 v 115 115 h 476 c 422,0 475,-2 464,-15 -10,-12 -9,-15 8,-15 26,0 32,-24 32,-127 v -83 h 155 155 v -125 -125 l -147,-1 c -82,-1 -456,-5 -833,-8 -507,-5 -292,-6 830,-6 h 1515 l 3,253 2,252 h 160 160 l 2,-57 2,-58 3,58 4,57 h 332 1155 822 v 108 c 0,60 2,111 4,113 2,2 51,3 108,2 56,-1 111,-2 122,-3 z m -4706,-160 v -50 h -354 -354 v 50 49 l 354,1 h 354 z m 2822,0 v -50 h -330 -330 v 50 50 h 330 330 z m 650,25 v -25 l -257,-2 -258,-3 258,-2 c 249,-3 257,-4 257,-23 0,-19 -7,-20 -290,-20 h -290 v 50 50 h 290 290 z m -4310,-195 v -110 h -198 -199 l -111,-119 -112,-119 V 9521 8490 H 785 670 v 1260 1260 h 425 425 z m 2660,-5 v -115 h -830 -830 v 115 115 h 830 830 z m -2,-252 -3,-128 h -670 -670 l -3,128 -3,127 h 676 676 z m 5332,-118 c 0,-23 -4,-25 -47,-26 -27,-1 -40,-3 -30,-6 16,-4 17,-25 17,-254 0,-242 -1,-249 -20,-249 -20,0 -20,7 -20,280 v 280 h 50 c 47,0 50,-2 50,-25 z m 0,-285 v -250 h -25 -25 v 250 250 h 25 25 z M 1140,9530 V 9200 H 1025 910 l 2,123 2,122 3,-107 4,-108 97,2 c 53,1 76,3 50,5 -46,4 -48,5 -50,36 l -1,32 -4,-32 c -4,-31 -7,-33 -44,-33 h -39 v 50 c 0,48 1,50 28,51 l 27,2 -27,4 c -26,4 -28,8 -28,49 0,37 3,44 20,44 14,0 20,-7 21,-22 l 2,-23 4,23 c 7,35 33,27 35,-10 l 1,-33 4,33 c 5,39 42,47 44,10 l 2,-23 4,23 c 3,14 12,22 26,23 22,2 22,2 0,6 -17,3 -23,12 -24,31 l -1,27 -7,-25 c -5,-20 -14,-26 -44,-28 -34,-3 -37,-1 -38,25 -1,28 -1,28 -8,3 -5,-18 -15,-26 -34,-28 l -27,-3 v 80 81 h 30 c 26,0 30,-4 31,-27 l 2,-28 4,28 c 4,24 8,27 44,27 36,0 39,-2 40,-27 l 2,-28 4,28 c 3,19 10,27 26,28 22,2 22,2 0,6 -17,3 -23,12 -24,31 l -2,27 -4,-27 c -3,-20 -10,-28 -24,-28 -14,0 -19,8 -21,33 l -1,32 -4,-32 c -5,-38 -32,-46 -34,-10 l -2,22 -4,-22 c -3,-14 -12,-23 -23,-23 -17,0 -19,9 -19,100 v 100 h 40 c 36,0 39,-2 40,-27 l 2,-28 4,27 c 4,24 9,27 51,31 26,2 3,4 -50,5 l -97,2 -4,-107 -3,-108 -2,123 -2,122 h 115 115 z m 8313,-296 c 5,-5 -33,-90 -130,-294 l -31,-65 -1,183 -1,182 h 78 c 43,0 81,-3 85,-6 z m 150,-1 c 2,-5 -39,-100 -93,-213 l -97,-205 -61,-3 c -54,-3 -62,-1 -62,15 0,10 41,107 92,216 l 91,197 h 63 c 35,0 65,-3 67,-7 z m 149,1 c 3,-3 -38,-98 -92,-212 l -98,-207 -71,-3 -71,-3 56,118 c 31,65 76,162 101,216 l 46,97 h 62 c 34,0 64,-2 67,-6 z m 98,-69 c 0,-74 -2,-80 -87,-263 l -88,-187 -3,47 -3,47 -48,3 -49,3 101,213 100,212 h 38 39 z m -8712,-327 -3,-353 H 1025 915 l -3,353 -2,352 h 115 115 z m 8625,-270 -88,-187 -3,151 -3,151 88,185 88,185 3,-149 3,-149 z m -103,-98 v -320 l -187,2 -188,3 -3,318 -2,317 h 190 190 z m 47,-340 c -79,-168 -154,-324 -166,-347 l -21,-43 h -65 c -36,0 -65,3 -65,7 0,4 39,91 88,195 l 87,188 h 53 52 v 110 109 l 88,187 87,186 3,-144 3,-143 z m 57,-205 -87,-185 h -69 c -37,0 -68,3 -68,8 0,4 36,84 80,177 44,94 113,239 153,324 l 72,154 3,-146 3,-146 z m -219,184 c -4,-12 -45,-100 -90,-195 l -84,-174 h -40 -41 v 69 c 0,63 5,79 59,195 l 60,126 h 71 c 68,0 71,-1 65,-21 z m 305,-204 v -165 h -81 c -61,0 -80,3 -76,13 13,32 150,317 154,317 1,0 3,-74 3,-165 z M 1190,7445 V 7150 H 930 670 v 295 295 h 260 260 z M 890,6503 v -638 l -110,3 -110,3 v 635 634 h 110 110 z m 250,-3 V 5860 H 1025 910 v 640 640 h 115 115 z m 8360,214 v -244 h -50 -50 v 244 244 h 50 50 z m -790,-869 v -45 h -535 -535 v 45 45 h 535 535 z M 6840,5465 v -325 h -235 -235 v 325 325 h 235 235 z m 792,58 3,-268 43,-1 42,-1 -40,4 -40,4 v 265 264 h 116 c 102,0 115,-2 104,-15 -11,-13 -8,-15 20,-15 28,0 31,2 20,15 -11,13 5,15 130,15 h 143 l -5,-82 c -3,-46 -3,-69 0,-53 5,30 5,30 12,5 4,-14 5,10 2,53 l -5,77 h 267 266 v -264 -265 l -40,-4 -40,-4 42,1 43,1 3,268 2,267 h 335 335 v -821 c 0,-729 -2,-820 -15,-809 -13,11 -15,8 -15,-20 0,-28 2,-31 15,-20 13,11 15,-80 15,-809 v -821 h -751 c -667,0 -750,2 -739,15 11,13 8,15 -20,15 -28,0 -31,-2 -20,-15 11,-13 -40,-15 -449,-15 h -461 v 680 680 h -290 -290 v 55 55 h 230 230 l -1,23 c -1,16 -2,18 -6,5 -4,-17 -24,-18 -229,-18 h -224 v 81 c 0,71 2,80 15,69 13,-11 15,-8 15,20 0,28 -2,31 -15,20 -13,-11 -15,3 -15,119 v 131 h 55 c 30,0 55,5 55,10 0,6 -25,10 -55,10 h -55 v 220 220 h 224 c 205,0 225,-1 229,-17 4,-14 5,-12 6,5 l 1,22 h -230 -230 v 70 70 h 290 290 v 385 385 h 340 340 z m -1272,-83 v -260 h -50 -50 v 260 260 h 50 50 z M 600,5030 c 0,-243 -1,-250 -20,-250 -19,0 -20,7 -20,250 0,243 1,250 20,250 19,0 20,-7 20,-250 z m 60,0 v -250 h -25 -25 v 250 250 h 25 25 z m 5700,-610 v -450 h -50 -50 v 450 450 h 50 50 z M 600,3266 c 0,-234 -1,-255 -17,-259 -10,-3 3,-5 30,-6 40,-1 47,-4 47,-21 0,-17 -7,-20 -50,-20 h -50 v 280 c 0,273 0,280 20,280 19,0 20,-7 20,-254 z m 58,2 c -3,-245 -4,-253 -23,-253 -19,0 -20,8 -23,253 l -2,252 h 25 25 z m 4580,-840 -3,-53 h -335 -335 l -3,53 -3,52 h 341 341 z m 1232,2 v -50 h -347 -348 l 2,47 c 1,27 2,49 2,51 1,1 156,2 346,2 h 345 z m 2430,0 v -50 h -749 -749 v 50 50 h 749 749 z m -4283,-67 c 168,-5 201,-8 192,-20 -9,-10 -4,-13 26,-13 31,0 35,2 26,14 -10,12 22,15 216,18 125,2 231,2 236,0 4,-2 7,-217 7,-479 0,-475 0,-476 -20,-458 -20,18 -20,17 -20,-20 0,-38 0,-38 20,-20 l 21,19 -3,-155 c 0,0 57.858,65.6477 -102,-499 -46,-160 -86,-293 -89,-296 -4,-5 -265,73 -276,82 -2,2 2,10 9,19 11,13 8,15 -19,15 -19,0 -30,-4 -26,-10 11,-17 21,-20 -385,112 -102,33 -266,86 -365,118 -99,32 -342,112 -540,177 l -360,118 -440,5 -440,5 -3,148 c -1,81 1,147 6,147 4,0 13,-5 20,-12 9,-9 12,-3 12,27 -1,35 -2,38 -14,23 -23,-31 -27,-20 -24,60 l 3,77 60,6 60,6 -57,1 -58,2 v 310 310 h 309 310 l 4,-47 3,-48 2,52 2,53 -317,2 -318,3 -3,64 c -2,35 -1,70 2,77 5,12 183,14 1068,14 585,0 1154,-3 1265,-7 z M 2280,1890 v -310 h -50 -50 v 310 310 h 50 50 z"
       id="path4"
       sodipodi:nodetypes="cccccccccccccccccccccccccccccccccccccccssssscccccccccccsssccccccssssscccccccccccsssssccsccccssssscccccccccccccccccssssscccccccsssssccssssssccccccccscccccsssccccccccccccccccscsscccccccsccccccccccccsscccccccccccccccccccccccccsscccccccccccccccccccccccccccccccccccccccsccssscssccccccccccccccccccccccscscccsscccccccccccccccccccccscccsccccccccsccccccsscsccccccccccccccccccscccccsccscccccccccscsccccccccccsccccccccccccccccccccccccccccccsscccccccccccccsscccccccccccsccscscscssccccccccccccccccccccccccccccccccccccccccccccccccccccccccccccccsssssccccccccccccccccccssssscssssscccccccccccscssssscssscccscccccccccccccccccccccccsssssccccccccccccccccccsccsscssscsccccccccccccccccccccscccccccccccccscccssscccccccsccscccccssccccccccccccccccccccscccccccccc" />
    <path
       d="m 3010,6640 v -810 h 655 655 v -815 c 0,-448 -4,-815 -8,-815 -4,0 -13,5 -20,12 -9,9 -12,4 -12,-22 0,-26 3,-31 12,-22 7,7 16,12 20,12 4,0 8,-83 8,-185 v -186 l 63,3 62,3 3,168 2,167 h 190 c 120,0 190,4 190,10 0,6 -70,10 -190,10 h -190 v 170 170 l 193,3 192,2 -192,3 -193,2 v 85 85 l 193,3 192,2 -192,3 -193,2 v 85 85 l 193,3 192,2 -192,3 -193,2 v 85 85 l 193,3 192,2 -192,3 -193,2 v 85 85 l 193,3 192,2 -192,3 -193,2 v 85 85 l 193,3 192,2 -192,3 -193,2 v 85 85 l 193,3 192,2 -192,3 -193,2 v 80 79 l 198,3 c 108,2 279,2 380,0 l 182,-2 v -80 -80 l -187,-3 -188,-2 188,-3 187,-2 v -85 -85 l -187,-3 -188,-2 188,-3 c 158,-2 187,-4 187,-17 0,-12 13,-15 55,-15 h 55 l -2,-635 c -2,-348 1,-630 5,-626 4,4 5,756 1,1669 l -7,1662 H 4163 3010 Z m 2120,755 v -45 h -304 -304 l -4,45 -3,45 h 307 308 z m -1420,-53 c 0,-4 -5,-13 -12,-20 -9,-9 -4,-12 22,-12 26,0 31,3 22,12 -7,7 -12,16 -12,20 0,5 132,7 293,6 l 292,-3 3,-47 3,-48 -277,-2 c -236,-3 -278,-5 -282,-18 -4,-12 -2,-13 9,-2 10,9 79,12 276,12 h 263 v -272 c 0,-150 3,-284 7,-298 6,-25 6,-25 -15,-6 l -22,19 v -38 c 0,-37 0,-38 20,-20 20,18 20,17 20,-333 v -352 h -295 c -190,0 -295,4 -295,10 0,6 5,10 10,10 6,0 10,5 10,10 0,6 -14,10 -32,10 -25,0 -29,-3 -20,-12 7,-7 12,-16 12,-20 0,-4 -130,-8 -290,-8 h -289 v 335 335 h 209 210 v 363 c 0,200 3,367 7,370 9,10 153,9 153,-1 z m 801,-57 6,-60 1,58 2,57 h 305 305 v -305 -304 l -57,-4 -58,-3 63,-2 62,-2 v 316 316 l 23,-6 c 12,-3 28,-6 35,-6 9,0 12,-163 12,-780 v -780 h -380 -380 v 786 785 l 28,-3 c 25,-3 27,-7 33,-63 z m -971,-305 v -360 h -190 -190 v 26 c 0,22 -2,25 -15,14 -13,-11 -15,27 -15,334 v 346 h 205 205 z m 900,-15 v -276 l -57,3 -58,3 -2,260 c -2,143 -1,266 2,273 3,7 25,12 60,12 h 55 z"
       id="path8" />
    <path
       d="m 3190,7081 c 0,-67 -3,-80 -17,-84 -10,-3 6,-5 35,-6 46,-1 52,-3 52,-22 0,-20 -4,-21 -55,-17 -30,3 -52,1 -49,-4 3,-4 12,-8 20,-8 11,0 14,-17 14,-80 v -80 h 155 155 v 190 190 h -155 -155 z m 300,-111 v -180 h -145 -145 v 74 75 l 33,3 c 27,2 32,7 32,28 0,21 -5,26 -32,28 l -33,3 v 75 74 h 145 145 z"
       id="path10" />
  </g>
  <text
     xml:space="preserve"
     transform="matrix(0.75,0,0,0.75,-26.79663,-7.0517448)"
     id="text1881"
     style="font-style:normal;font-weight:normal;font-size:40px;line-height:1.25;font-family:sans-serif;white-space:pre;shape-inside:url(#rect1883);fill-opacity:1;stroke:none"><tspan
       x="707.05469"
       y="132.39751"
       id="tspan8743">H%</tspan></text>
  <text
     xml:space="preserve"
     transform="scale(0.75)"
     id="text4923"
     style="font-style:normal;font-weight:normal;font-size:40px;line-height:1.25;font-family:sans-serif;white-space:pre;shape-inside:url(#rect4925);fill:#000000;fill-opacity:1;stroke:none" />
  <text
     xml:space="preserve"
     style="font-style:normal;font-weight:normal;font-size:30px;line-height:1.25;font-family:sans-serif;fill-opacity:1;stroke:none;stroke-width:0.75"
     x="575.42242"
     y="93.083038"
     id="text7967"
     class="V_N21HH1"><tspan
       sodipodi:role="line"
       id="tspan7965"
       style="stroke-width:0.75"
       x="575.42242"
       y="93.083038"
       class="V_N31HE1">hv</tspan></text>
  <text
     xml:space="preserve"
     style="font-style:normal;font-weight:normal;font-size:30px;line-height:1.25;font-family:sans-serif;fill-opacity:1;stroke:none;stroke-width:0.75"
     x="506.31528"
     y="132.5728"
     id="text12039"><tspan
       sodipodi:role="line"
       id="tspan12037"
       style="stroke-width:0.75"
       x="506.31528"
       y="132.5728">T°C</tspan></text>
  <text
     xml:space="preserve"
     style="font-style:normal;font-weight:normal;font-size:30px;line-height:1.25;font-family:sans-serif;fill-opacity:1;stroke:none;stroke-width:0.75"
     x="578.24304"
     y="132.5728"
     id="text13165"
     class="V_N21TT1"><tspan
       sodipodi:role="line"
       id="tspan13163"
       style="stroke-width:0.75"
       x="578.24304"
       y="132.5728">tv</tspan></text>
  <text
     xml:space="preserve"
     style="font-style:normal;font-weight:normal;font-size:30px;line-height:1.25;font-family:sans-serif;fill-opacity:1;stroke:none;stroke-width:0.75"
     x="578.5791"
     y="167.93935"
     id="text13165-3"
     class="V_N21HE1"><tspan
       sodipodi:role="line"
       id="tspan13163-2"
       style="stroke-width:0.75"
       x="578.5791"
       y="167.93935">HE</tspan></text>
  <g
     id="g228302"
     transform="matrix(0.27988368,0,0,0.27038476,654.44449,149.53993)"
     onclick="runCmd('N2RGBOFF')">
    <path
       d="m 293.983,118.572 c -0.989,-4.833 -2.213,-9.581 -3.659,-14.231 -0.362,-1.162 -0.737,-2.319 -1.126,-3.469 -0.778,-2.3 -1.612,-4.575 -2.498,-6.823 -0.443,-1.124 -0.9,-2.241 -1.369,-3.352 -1.409,-3.331 -2.936,-6.6 -4.576,-9.802 -1.093,-2.134 -2.237,-4.239 -3.429,-6.312 -5.96,-10.365 -13.135,-19.943 -21.331,-28.539 -1.639,-1.719 -3.319,-3.399 -5.038,-5.038 -8.596,-8.196 -18.174,-15.371 -28.539,-21.331 -2.073,-1.192 -4.178,-2.336 -6.312,-3.429 -3.202,-1.64 -6.471,-3.167 -9.802,-4.576 -1.11,-0.47 -2.228,-0.926 -3.352,-1.369 -2.248,-0.886 -4.523,-1.72 -6.823,-2.498 C 194.979,7.414 193.823,7.038 192.66,6.677 188.01,5.231 183.262,4.007 178.429,3.018 168.761,1.039 158.752,0 148.5,0 c -10.252,0 -20.261,1.039 -29.928,3.017 -4.833,0.989 -9.581,2.213 -14.231,3.659 -1.162,0.362 -2.319,0.737 -3.469,1.126 -2.3,0.778 -4.575,1.612 -6.823,2.498 -1.124,0.443 -2.241,0.9 -3.352,1.369 -3.331,1.409 -6.6,2.936 -9.802,4.576 -2.134,1.093 -4.239,2.237 -6.312,3.429 -10.365,5.961 -19.943,13.136 -28.539,21.331 -1.719,1.639 -3.399,3.319 -5.038,5.038 -8.196,8.597 -15.371,18.175 -21.331,28.54 -1.192,2.073 -2.336,4.178 -3.429,6.312 -1.64,3.202 -3.167,6.471 -4.576,9.802 -0.47,1.11 -0.926,2.228 -1.369,3.352 -0.886,2.248 -1.72,4.523 -2.498,6.823 -0.389,1.15 -0.765,2.306 -1.126,3.469 -1.446,4.65 -2.67,9.398 -3.659,14.231 C 1.039,128.239 0,138.248 0,148.5 c 0,21.785 4.691,42.474 13.118,61.113 0.991,2.193 2.035,4.357 3.128,6.492 1.64,3.202 3.393,6.336 5.253,9.398 1.24,2.041 2.528,4.05 3.863,6.025 0.667,0.988 1.346,1.967 2.036,2.937 1.38,1.941 2.806,3.847 4.276,5.717 1.47,1.87 2.983,3.704 4.539,5.5 1.556,1.796 3.154,3.555 4.793,5.274 1.639,1.719 3.319,3.399 5.038,5.038 8.596,8.196 18.174,15.371 28.539,21.331 2.073,1.192 4.178,2.335 6.312,3.429 3.202,1.64 6.471,3.167 9.802,4.576 1.11,0.47 2.228,0.926 3.352,1.369 2.248,0.886 4.523,1.72 6.823,2.498 1.15,0.389 2.306,0.765 3.469,1.126 4.65,1.446 9.398,2.67 14.231,3.659 9.667,1.978 19.676,3.017 29.928,3.017 10.252,0 20.261,-1.039 29.928,-3.017 4.833,-0.989 9.581,-2.213 14.231,-3.659 1.162,-0.362 2.319,-0.737 3.469,-1.126 2.3,-0.778 4.575,-1.612 6.823,-2.498 1.124,-0.443 2.241,-0.9 3.352,-1.369 3.331,-1.409 6.6,-2.936 9.802,-4.576 2.134,-1.093 4.239,-2.237 6.312,-3.429 10.365,-5.96 19.943,-13.135 28.539,-21.331 1.719,-1.639 3.399,-3.319 5.038,-5.038 1.639,-1.719 3.237,-3.478 4.793,-5.274 1.556,-1.796 3.07,-3.63 4.539,-5.5 1.47,-1.87 2.895,-3.776 4.276,-5.717 0.69,-0.97 1.369,-1.949 2.036,-2.937 1.334,-1.975 2.622,-3.984 3.863,-6.025 1.86,-3.062 3.613,-6.196 5.253,-9.398 1.093,-2.135 2.136,-4.299 3.128,-6.492 C 292.309,190.974 297,170.285 297,148.5 c 0,-10.252 -1.039,-20.261 -3.017,-29.928 z M 134.167,49.538 c 0,-7.698 6.302,-13.938 14,-13.938 7.698,0 14,6.24 14,13.938 v 42.095 c 0,7.698 -6.302,13.938 -14,13.938 -7.698,0 -14,-6.24 -14,-13.938 z m 109.319,102.699 c -2.609,49.571 -43.087,89.358 -92.696,91.101 -54.66,1.921 -99.868,-41.992 -99.868,-96.236 0,-29.416 13.742,-55.79 34.349,-73.467 8.148,-6.99 20.743,-1.228 20.743,9.507 v 0 c 0,3.708 -1.662,7.201 -4.485,9.606 -15.281,13.024 -25.284,32.549 -25.284,54.353 0,39.125 32.05,70.956 71.175,70.956 39.125,0 70.919,-31.831 70.919,-70.956 0,-21.124 -8.839,-40.118 -23.92,-53.128 -2.802,-2.417 -4.45,-5.903 -4.45,-9.603 v 0 c 0,-10.838 12.8,-16.648 20.923,-9.473 21.176,18.705 34.213,46.571 32.594,77.34 z"
       id="path23" />
  </g>
  <g
     inkscape:groupmode="layer"
     id="layer1"
     inkscape:label="Layer 1"
     style="display:inline">
    <ellipse
       style="display:inline;fill:#ff0000;fill-rule:evenodd;stroke-width:0.835294"
       id="path48-3"
       cx="694.42053"
       cy="104.18952"
       rx="36.404633"
       ry="36.316486"
       class="S_N21RGB1" />
  </g>
  <g
     inkscape:groupmode="layer"
     id="layer2"
     inkscape:label="Layer 2">
    <g
       id="g22830"
       transform="matrix(0.27988368,0,0,0.27038476,650.74751,62.329896)"
       onclick="runCmd('N2RGBON')">
      <path
         d="m 293.983,118.572 c -0.989,-4.833 -2.213,-9.581 -3.659,-14.231 -0.362,-1.162 -0.737,-2.319 -1.126,-3.469 -0.778,-2.3 -1.612,-4.575 -2.498,-6.823 -0.443,-1.124 -0.9,-2.241 -1.369,-3.352 -1.409,-3.331 -2.936,-6.6 -4.576,-9.802 -1.093,-2.134 -2.237,-4.239 -3.429,-6.312 -5.96,-10.365 -13.135,-19.943 -21.331,-28.539 -1.639,-1.719 -3.319,-3.399 -5.038,-5.038 -8.596,-8.196 -18.174,-15.371 -28.539,-21.331 -2.073,-1.192 -4.178,-2.336 -6.312,-3.429 -3.202,-1.64 -6.471,-3.167 -9.802,-4.576 -1.11,-0.47 -2.228,-0.926 -3.352,-1.369 -2.248,-0.886 -4.523,-1.72 -6.823,-2.498 C 194.979,7.414 193.823,7.038 192.66,6.677 188.01,5.231 183.262,4.007 178.429,3.018 168.761,1.039 158.752,0 148.5,0 c -10.252,0 -20.261,1.039 -29.928,3.017 -4.833,0.989 -9.581,2.213 -14.231,3.659 -1.162,0.362 -2.319,0.737 -3.469,1.126 -2.3,0.778 -4.575,1.612 -6.823,2.498 -1.124,0.443 -2.241,0.9 -3.352,1.369 -3.331,1.409 -6.6,2.936 -9.802,4.576 -2.134,1.093 -4.239,2.237 -6.312,3.429 -10.365,5.961 -19.943,13.136 -28.539,21.331 -1.719,1.639 -3.399,3.319 -5.038,5.038 -8.196,8.597 -15.371,18.175 -21.331,28.54 -1.192,2.073 -2.336,4.178 -3.429,6.312 -1.64,3.202 -3.167,6.471 -4.576,9.802 -0.47,1.11 -0.926,2.228 -1.369,3.352 -0.886,2.248 -1.72,4.523 -2.498,6.823 -0.389,1.15 -0.765,2.306 -1.126,3.469 -1.446,4.65 -2.67,9.398 -3.659,14.231 C 1.039,128.239 0,138.248 0,148.5 c 0,21.785 4.691,42.474 13.118,61.113 0.991,2.193 2.035,4.357 3.128,6.492 1.64,3.202 3.393,6.336 5.253,9.398 1.24,2.041 2.528,4.05 3.863,6.025 0.667,0.988 1.346,1.967 2.036,2.937 1.38,1.941 2.806,3.847 4.276,5.717 1.47,1.87 2.983,3.704 4.539,5.5 1.556,1.796 3.154,3.555 4.793,5.274 1.639,1.719 3.319,3.399 5.038,5.038 8.596,8.196 18.174,15.371 28.539,21.331 2.073,1.192 4.178,2.335 6.312,3.429 3.202,1.64 6.471,3.167 9.802,4.576 1.11,0.47 2.228,0.926 3.352,1.369 2.248,0.886 4.523,1.72 6.823,2.498 1.15,0.389 2.306,0.765 3.469,1.126 4.65,1.446 9.398,2.67 14.231,3.659 9.667,1.978 19.676,3.017 29.928,3.017 10.252,0 20.261,-1.039 29.928,-3.017 4.833,-0.989 9.581,-2.213 14.231,-3.659 1.162,-0.362 2.319,-0.737 3.469,-1.126 2.3,-0.778 4.575,-1.612 6.823,-2.498 1.124,-0.443 2.241,-0.9 3.352,-1.369 3.331,-1.409 6.6,-2.936 9.802,-4.576 2.134,-1.093 4.239,-2.237 6.312,-3.429 10.365,-5.96 19.943,-13.135 28.539,-21.331 1.719,-1.639 3.399,-3.319 5.038,-5.038 1.639,-1.719 3.237,-3.478 4.793,-5.274 1.556,-1.796 3.07,-3.63 4.539,-5.5 1.47,-1.87 2.895,-3.776 4.276,-5.717 0.69,-0.97 1.369,-1.949 2.036,-2.937 1.334,-1.975 2.622,-3.984 3.863,-6.025 1.86,-3.062 3.613,-6.196 5.253,-9.398 1.093,-2.135 2.136,-4.299 3.128,-6.492 C 292.309,190.974 297,170.285 297,148.5 c 0,-10.252 -1.039,-20.261 -3.017,-29.928 z M 134.167,49.538 c 0,-7.698 6.302,-13.938 14,-13.938 7.698,0 14,6.24 14,13.938 v 42.095 c 0,7.698 -6.302,13.938 -14,13.938 -7.698,0 -14,-6.24 -14,-13.938 z m 109.319,102.699 c -2.609,49.571 -43.087,89.358 -92.696,91.101 -54.66,1.921 -99.868,-41.992 -99.868,-96.236 0,-29.416 13.742,-55.79 34.349,-73.467 8.148,-6.99 20.743,-1.228 20.743,9.507 v 0 c 0,3.708 -1.662,7.201 -4.485,9.606 -15.281,13.024 -25.284,32.549 -25.284,54.353 0,39.125 32.05,70.956 71.175,70.956 39.125,0 70.919,-31.831 70.919,-70.956 0,-21.124 -8.839,-40.118 -23.92,-53.128 -2.802,-2.417 -4.45,-5.903 -4.45,-9.603 v 0 c 0,-10.838 12.8,-16.648 20.923,-9.473 21.176,18.705 34.213,46.571 32.594,77.34 z"
         id="path22777" />
    </g>
    <g
       id="g58"
       transform="matrix(0.18675881,0,0,0.18762515,133.77859,344.1684)">
      <path
         style="fill:#010002"
         d="m 235.696,81.72 c 0,-4.487 -3.633,-8.129 -8.129,-8.129 -46.926,0 -85.106,38.18 -85.106,85.106 0,4.487 3.633,8.129 8.129,8.129 4.495,0 8.129,-3.642 8.129,-8.129 0,-37.96 30.889,-68.849 68.849,-68.849 4.495,0 8.128,-3.633 8.128,-8.128 z"
         id="path38" />
      <path
         style="fill:#010002"
         d="m 108.305,158.697 c 0,27.897 9.015,54.274 26.076,76.279 0.081,0.106 0.171,0.211 0.26,0.317 35.579,49.389 26.735,72.881 26.735,72.921 -1.902,4.064 -0.146,8.901 3.918,10.811 1.114,0.52 2.284,0.772 3.438,0.764 3.056,0 5.983,-1.731 7.364,-4.682 1.471,-3.121 13.095,-32.214 -28.694,-89.91 -0.187,-0.252 -0.374,-0.496 -0.585,-0.723 -14.558,-19.021 -22.248,-41.748 -22.248,-65.785 0,-59.729 48.601,-108.321 108.321,-108.321 59.72,0 108.323,48.592 108.323,108.321 0,24.101 -7.738,46.918 -22.524,66.15 -41.813,57.737 -29.718,87.163 -28.206,90.333 1.91,3.975 6.6,5.601 10.616,3.804 4.016,-1.797 5.836,-6.576 4.137,-10.64 -0.098,-0.236 -9.413,-24.199 26.483,-73.775 16.842,-21.915 25.751,-48.146 25.751,-75.864 0,-68.695 -55.884,-124.579 -124.579,-124.579 -68.695,0 -124.586,55.893 -124.586,124.579 z"
         id="path40" />
      <path
         style="fill:#010002"
         d="m 305.439,351.084 v -6.909 c 0,-11.014 -8.966,-19.972 -19.972,-19.972 h -109.54 c -11.014,0 -19.972,8.958 -19.972,19.972 v 6.909 c 0,11.006 8.958,19.972 19.972,19.972 h 109.549 c 11.006,0 19.963,-8.958 19.963,-19.972 z m -133.227,0 v -6.909 c 0,-2.048 1.666,-3.715 3.715,-3.715 h 109.549 c 2.048,0 3.715,1.666 3.715,3.715 v 6.909 c 0,2.048 -1.666,3.715 -3.715,3.715 H 175.927 c -2.049,0 -3.715,-1.666 -3.715,-3.715 z"
         id="path42" />
      <path
         style="fill:#010002"
         d="m 189.087,383.412 c -4.495,0 -8.129,3.642 -8.129,8.129 v 21.468 c 0,3.186 1.861,6.072 4.755,7.397 l 43.805,19.988 c 1.073,0.488 2.219,0.732 3.373,0.732 1.187,0 2.374,-0.26 3.471,-0.78 l 43.927,-20.728 c 2.845,-1.341 4.658,-4.202 4.658,-7.348 v -20.72 c 0,-4.487 -3.633,-8.129 -8.129,-8.129 -4.496,0 -8.129,3.642 -8.129,8.129 v 15.574 l -35.855,16.924 -35.619,-16.257 V 391.55 c 0,-4.505 -3.633,-8.138 -8.128,-8.138 z"
         id="path44" />
      <path
         style="fill:#010002"
         d="m 422.263,305.581 c 2.666,-3.609 1.894,-8.698 -1.715,-11.364 l -55.144,-40.659 c -3.617,-2.666 -8.698,-1.902 -11.364,1.715 -2.666,3.609 -1.894,8.698 1.715,11.364 l 55.144,40.659 c 1.455,1.073 3.146,1.585 4.82,1.585 2.488,0.008 4.951,-1.138 6.544,-3.3 z"
         id="path46" />
      <path
         style="fill:#010002"
         d="m 99.16,77.468 c 1.455,1.073 3.146,1.585 4.82,1.585 2.495,0 4.95,-1.146 6.552,-3.308 2.666,-3.609 1.894,-8.698 -1.715,-11.364 L 52.429,22.811 c -3.609,-2.674 -8.698,-1.894 -11.364,1.715 -2.666,3.617 -1.902,8.706 1.715,11.372 z"
         id="path48" />
      <path
         style="fill:#010002"
         d="m 101.721,250.761 -58.932,43.455 c -3.609,2.666 -4.381,7.755 -1.715,11.364 1.593,2.162 4.056,3.308 6.552,3.308 1.674,0 3.365,-0.512 4.82,-1.585 l 58.932,-43.455 c 3.609,-2.666 4.381,-7.755 1.715,-11.364 -2.683,-3.617 -7.763,-4.381 -11.372,-1.723 z"
         id="path50" />
      <path
         style="fill:#010002"
         d="m 358.161,61.699 c -3.609,2.666 -4.381,7.755 -1.715,11.364 1.593,2.162 4.056,3.308 6.552,3.308 1.674,0 3.365,-0.52 4.82,-1.585 l 52.746,-38.887 c 3.609,-2.666 4.381,-7.755 1.715,-11.364 -2.666,-3.609 -7.747,-4.389 -11.364,-1.715 z"
         id="path52" />
      <path
         style="fill:#010002"
         d="m 454.217,156.933 h -62.175 c -4.495,0 -8.129,3.642 -8.129,8.129 0,4.487 3.633,8.129 8.129,8.129 h 62.175 c 4.495,0 8.129,-3.642 8.129,-8.129 0,-4.487 -3.634,-8.129 -8.129,-8.129 z"
         id="path54" />
      <path
         style="fill:#010002"
         d="m 80.416,165.062 c 0,-4.487 -3.633,-8.129 -8.129,-8.129 H 8.129 c -4.495,0 -8.129,3.642 -8.129,8.129 0,4.487 3.633,8.129 8.129,8.129 h 64.159 c 4.486,-0.001 8.128,-3.642 8.128,-8.129 z"
         id="path56" />
    </g>
  </g>
  <text
     xml:space="preserve"
     style="font-style:normal;font-weight:normal;font-size:30px;line-height:1.25;font-family:sans-serif;fill:#000000;fill-opacity:1;stroke:none;stroke-width:0.75"
     x="350.04083"
     y="168.53818"
     id="text3632"><tspan
       sodipodi:role="line"
       id="tspan3630"
       style="stroke-width:0.75"
       x="350.04083"
       y="168.53818">Hall Sensor</tspan></text>
  <text
     xml:space="preserve"
     transform="matrix(0.75,0,0,0.75,-269.16009,287.30571)"
     id="text1881-1"
     style="font-style:normal;font-weight:normal;font-size:40px;line-height:1.25;font-family:sans-serif;white-space:pre;shape-inside:url(#rect1883-2);fill-opacity:1;stroke:none"><tspan
       x="707.05469"
       y="132.39751"
       id="tspan8745">H%</tspan></text>
  <text
     xml:space="preserve"
     style="font-style:normal;font-weight:normal;font-size:30px;line-height:1.25;font-family:sans-serif;fill-opacity:1;stroke:none;stroke-width:0.75"
     x="333.05896"
     y="387.44049"
     id="text7967-1"
     class="V_N11HH1"><tspan
       sodipodi:role="line"
       id="tspan7965-1"
       style="stroke-width:0.75"
       x="333.05896"
       y="387.44049"
       class="V_N31HE1">hv</tspan></text>
  <text
     xml:space="preserve"
     style="font-style:normal;font-weight:normal;font-size:30px;line-height:1.25;font-family:sans-serif;fill-opacity:1;stroke:none;stroke-width:0.75"
     x="263.95184"
     y="426.93024"
     id="text12039-6"><tspan
       sodipodi:role="line"
       id="tspan12037-0"
       style="stroke-width:0.75"
       x="263.95184"
       y="426.93024">T°C</tspan></text>
  <text
     xml:space="preserve"
     style="font-style:normal;font-weight:normal;font-size:30px;line-height:1.25;font-family:sans-serif;fill-opacity:1;stroke:none;stroke-width:0.75"
     x="335.87958"
     y="426.93024"
     id="text13165-4"
     class="V_N11TT1"><tspan
       sodipodi:role="line"
       id="tspan13163-7"
       style="stroke-width:0.75"
       x="335.87958"
       y="426.93024">tv</tspan></text>
  <text
     xml:space="preserve"
     style="font-style:normal;font-weight:normal;font-size:30px;line-height:1.25;font-family:sans-serif;fill-opacity:1;stroke:none;stroke-width:0.75"
     x="336.21564"
     y="462.29678"
     id="text13165-3-9"
     class="V_N11HE1"><tspan
       sodipodi:role="line"
       id="tspan13163-2-9"
       style="stroke-width:0.75"
       x="336.21564"
       y="462.29678">HE</tspan></text>
  <text
     xml:space="preserve"
     style="font-style:normal;font-weight:normal;font-size:30px;line-height:1.25;font-family:sans-serif;fill:#000000;fill-opacity:1;stroke:none;stroke-width:0.75"
     x="107.67737"
     y="462.89563"
     id="text3632-8"><tspan
       sodipodi:role="line"
       id="tspan3630-7"
       style="stroke-width:0.75"
       x="107.67737"
       y="462.89563">Hall Sensor</tspan></text>
</svg>
