<?xml version="1.0" standalone="no"?>
<!DOCTYPE svg PUBLIC "-//W3C//DTD SVG 20010904//EN"
 "http://www.w3.org/TR/2001/REC-SVG-20010904/DTD/svg10.dtd">
<svg version="1.0" xmlns="http://www.w3.org/2000/svg"
 width="300.000000pt" height="198.000000pt" viewBox="0 0 300.000000 198.000000"
 preserveAspectRatio="xMidYMid meet">
<metadata>
Created by potrace 1.10, written by Peter Selinger 2001-2011
</metadata>
<g transform="translate(0.000000,198.000000) scale(0.100000,-0.100000)"
fill="#000000" stroke="none">
<path d="M1663 1854 c-72 -15 -197 -66 -233 -93 -24 -19 -25 -19 -65 2 -57 29
-165 30 -221 0 -48 -26 -104 -85 -123 -131 -10 -24 -18 -31 -30 -26 -48 19
-93 26 -165 22 -102 -4 -174 -36 -251 -109 -115 -109 -143 -248 -79 -394 2 -6
-11 -16 -30 -23 -47 -17 -130 -94 -163 -149 -20 -34 -27 -63 -31 -118 -4 -63
-1 -80 23 -134 59 -131 169 -193 342 -192 71 0 83 -3 83 -17 0 -9 9 -36 20
-59 101 -223 439 -325 737 -222 l55 19 24 -30 c14 -16 51 -42 82 -57 50 -25
68 -28 152 -28 87 0 100 3 149 30 67 37 110 89 126 152 9 32 18 47 26 44 66
-18 105 -22 176 -19 66 4 93 10 147 37 175 86 239 297 134 443 -20 26 -27 43
-19 46 21 7 117 90 143 123 49 66 71 121 76 195 10 157 -74 270 -233 313 -36
9 -44 18 -74 77 -76 146 -236 262 -413 298 -94 19 -278 19 -365 0z m358 -69
c188 -40 339 -173 393 -347 3 -11 15 -18 29 -18 46 0 128 -31 164 -63 73 -65
95 -180 51 -275 -28 -60 -118 -150 -191 -192 -31 -17 -57 -34 -57 -36 0 -3 15
-18 34 -35 48 -41 86 -122 86 -179 0 -60 -40 -140 -92 -184 -99 -85 -236 -88
-420 -11 -15 6 -17 1 -11 -43 10 -88 -33 -168 -112 -203 -47 -22 -139 -25
-198 -7 -39 12 -113 73 -133 110 -9 17 -12 17 -49 -2 -82 -40 -164 -55 -295
-54 -102 1 -136 5 -184 22 -152 56 -240 153 -253 278 -6 52 -6 52 -32 42 -14
-5 -66 -10 -116 -11 -110 0 -175 24 -234 88 -133 144 -53 332 171 404 l38 13
-25 32 c-51 67 -67 158 -43 239 18 61 104 148 180 182 105 48 184 40 320 -33
3 -1 9 12 13 30 20 91 94 172 167 183 55 8 118 -8 156 -40 29 -24 30 -24 46
-6 29 31 150 90 228 111 92 24 267 26 369 5z m-981 -205 c0 -5 -2 -10 -4 -10
-2 0 -11 -3 -19 -6 -8 -3 -17 2 -20 10 -5 12 0 16 18 16 14 0 25 -4 25 -10z
m-500 -475 c0 -14 -29 -29 -38 -20 -3 3 -1 5 5 5 6 0 9 9 6 20 -4 16 -2 19 11
14 9 -3 16 -12 16 -19z m1968 -260 c2 -27 1 -28 -22 -19 -27 10 -18 38 14 43
3 1 7 -10 8 -24z m-428 -470 c10 -12 10 -15 -3 -15 -9 0 -21 -8 -26 -17 -9
-16 -10 -16 -11 -1 0 9 -3 23 -6 32 -8 21 29 22 46 1z"/>
</g>
</svg>
