<?xml version="1.0" ?><svg width="24px" height="24px" viewBox="0 0 24 24" id="Layer_2" style="enable-background:new 0 0 24 24;" version="1.1" xml:space="preserve" xmlns="http://www.w3.org/2000/svg" xmlns:xlink="http://www.w3.org/1999/xlink"><path d="M20,17.5h-1.709c-0.26-0.446-0.739-0.75-1.291-0.75h-4c-0.827,0-1.5,0.673-1.5,1.5v0.125H6.938  C5.318,18.375,4,17.057,4,15.438S5.318,12.5,6.938,12.5h10.125C19.233,12.5,21,10.733,21,8.563s-1.767-3.938-3.938-3.938H12.5V4.5  C12.5,3.673,11.827,3,11,3H7C6.447,3,5.969,3.304,5.709,3.75H4c-0.551,0-1,0.449-1,1V5.5c0,0.551,0.449,1,1,1h1.709  C5.969,6.946,6.447,7.25,7,7.25h4c0.827,0,1.5-0.673,1.5-1.5V5.625h4.563c1.62,0,2.938,1.318,2.938,2.938S18.682,11.5,17.063,11.5  H6.938C4.767,11.5,3,13.267,3,15.438s1.767,3.938,3.938,3.938H11.5V19.5c0,0.827,0.673,1.5,1.5,1.5h4  c0.553,0,1.031-0.304,1.291-0.75H20c0.551,0,1-0.449,1-1V18.5C21,17.949,20.551,17.5,20,17.5z M4,4.75h1.5V5.5H4V4.75z M11.5,5.75  c0,0.276-0.224,0.5-0.5,0.5H7c-0.276,0-0.5-0.224-0.5-0.5V4.5C6.5,4.224,6.724,4,7,4h4c0.276,0,0.5,0.224,0.5,0.5V5.75z M17,20h-4  c-0.276,0-0.5-0.224-0.5-0.5v-1.25c0-0.276,0.224-0.5,0.5-0.5h4c0.276,0,0.5,0.224,0.5,0.5v1.25C17.5,19.776,17.276,20,17,20z   M20,19.25h-1.5V18.5H20V19.25z"/></svg>