<?xml version="1.0" encoding="UTF-8" standalone="no"?>
<!DOCTYPE svg PUBLIC "-//W3C//DTD SVG 20010904//EN" "http://www.w3.org/TR/2001/REC-SVG-20010904/DTD/svg10.dtd">
<svg version="1.0" xmlns="http://www.w3.org/2000/svg" width="84.000000pt" height="71.000000pt" viewBox="0 0 84.000000 71.000000" preserveAspectRatio="xMidYMid meet">
<metadata>
Created by potrace 1.10, written by Peter Selinger 2001-2011
</metadata>
<g transform="translate(0.000000,71.000000) scale(0.100000,-0.100000)" fill="#000000" stroke="none">
<path d="M81 666 c-47 -26 -50 -45 -51 -299 0 -252 5 -283 49 -307 12 -6 138 -10 336 -10 l317 0 29 31 29 31 0 252 c-1 265 -1 265 -50 299 -22 15 -58 17 -330 17 -234 -1 -311 -4 -329 -14z m338 -86 c35 -16 65 -20 162 -20 l119 0 0 -40 0 -40 -86 0 c-78 0 -85 -2 -79 -17 14 -33 18 -121 7 -152 l-11 -31 85 0 84 0 0 -35 0 -35 -114 0 c-73 0 -117 -4 -122 -11 -10 -17 -86 -49 -116 -49 l-28 0 0 85 0 85 -95 0 -95 0 0 40 0 40 95 0 95 0 0 100 0 100 28 0 c15 0 47 -9 71 -20z"/>
</g>
</svg>