<?xml version="1.0" encoding="UTF-8" standalone="no"?>
<!DOCTYPE svg PUBLIC "-//W3C//DTD SVG 20010904//EN" "http://www.w3.org/TR/2001/REC-SVG-20010904/DTD/svg10.dtd">
<svg version="1.0" xmlns="http://www.w3.org/2000/svg" width="56.000000pt" height="83.000000pt" viewBox="0 0 56.000000 83.000000" preserveAspectRatio="xMidYMid meet">
<metadata>
Created by potrace 1.10, written by Peter Selinger 2001-2011
</metadata>
<g transform="translate(0.000000,83.000000) scale(0.100000,-0.100000)" fill="#000000" stroke="none">
<path d="M37 804 c-4 -4 -7 -88 -7 -186 l0 -178 245 0 245 0 -2 183 -3 182 -236 3 c-129 1 -238 -1 -242 -4z m402 -63 c9 -6 11 -18 6 -41 -6 -25 -2 -36 16 -56 l22 -24 -22 -24 c-18 -19 -21 -30 -16 -60 4 -20 6 -36 4 -36 -2 0 -19 -4 -37 -9 -29 -9 -33 -8 -30 7 2 11 -9 24 -32 38 -19 11 -34 25 -33 31 1 5 -9 8 -22 6 -15 -4 -29 2 -41 16 l-18 20 -33 -25 c-32 -24 -33 -24 -33 -5 0 19 -6 21 -55 21 -48 0 -55 2 -55 20 0 18 7 20 55 20 42 0 55 3 55 15 0 20 7 19 38 -5 l25 -20 20 21 c12 13 28 19 42 16 15 -2 22 0 19 8 -3 6 11 19 31 28 19 9 35 23 35 32 0 16 36 20 59 6z"/>
<path d="M365 659 l-30 -19 43 0 c35 0 42 3 42 20 0 25 -16 24 -55 -1z"/>
<path d="M370 580 c45 -24 50 -24 50 0 0 17 -7 20 -42 20 l-43 -1 35 -19z"/>
<path d="M30 227 c0 -121 4 -177 12 -185 13 -13 431 -18 462 -6 14 5 16 31 16 185 l0 179 -245 0 -245 0 0 -173z m170 98 c0 -20 -5 -25 -25 -25 -24 0 -25 -2 -25 -70 0 -68 1 -70 25 -70 18 0 25 -5 25 -20 0 -16 -7 -20 -32 -20 -58 0 -63 9 -63 115 0 106 5 115 63 115 28 0 32 -3 32 -25z m250 -65 c0 -78 -2 -90 -17 -90 -13 0 -14 -3 -5 -12 31 -31 14 -38 -93 -38 -107 0 -124 7 -93 38 9 9 8 12 -5 12 -15 0 -17 12 -17 90 l0 90 115 0 115 0 0 -90z"/>
<path d="M260 265 l0 -55 75 0 75 0 0 55 0 55 -75 0 -75 0 0 -55z"/>
</g>
</svg>