<?xml version="1.0" standalone="no"?>
<!DOCTYPE svg PUBLIC "-//W3C//DTD SVG 20010904//EN"
 "http://www.w3.org/TR/2001/REC-SVG-20010904/DTD/svg10.dtd">
<svg version="1.0" xmlns="http://www.w3.org/2000/svg"
 width="300.000000pt" height="300.000000pt" viewBox="0 0 300.000000 300.000000"
 preserveAspectRatio="xMidYMid meet">
<metadata>
Created by potrace 1.10, written by Peter Selinger 2001-2011
</metadata>
<g transform="translate(0.000000,300.000000) scale(0.100000,-0.100000)"
fill="#000000" stroke="none">
<path d="M907 2851 c-43 -28 -58 -56 -71 -134 l-12 -72 -38 -6 c-23 -4 -50
-18 -69 -38 l-32 -31 0 -1071 0 -1071 37 -34 c32 -29 45 -34 88 -34 l50 0 0
-103 c0 -67 4 -107 12 -115 17 -17 232 -17 245 0 6 7 28 59 49 115 l39 103
295 0 295 0 39 -103 c21 -56 43 -108 49 -115 13 -17 228 -17 245 0 8 8 12 48
12 115 l0 103 50 0 c43 0 56 5 88 34 l37 34 0 1071 0 1071 -32 31 c-19 20 -46
34 -69 38 l-38 6 -12 72 c-13 78 -28 106 -71 134 -26 18 -60 19 -593 19 -533
0 -567 -1 -593 -19z m1159 -101 c6 -14 14 -44 18 -67 l6 -43 -590 0 c-324 0
-590 2 -590 4 0 23 23 112 31 123 10 11 108 13 563 11 l551 -3 11 -25z m-1172
-125 l16 -25 -40 0 c-41 0 -43 4 -17 38 14 18 23 15 41 -13z m1258 8 c27 -25
22 -33 -22 -33 l-41 0 18 25 c22 29 22 29 45 8z m65 -88 c17 -6 19 -2080 3
-2090 -6 -4 -26 -9 -45 -11 l-35 -4 0 318 c0 315 0 319 -23 353 -47 71 -32 69
-617 69 -579 0 -567 1 -614 -63 -20 -27 -21 -43 -24 -353 l-3 -324 -34 4 c-19
2 -39 7 -45 11 -7 4 -10 341 -10 1045 0 890 2 1040 14 1047 15 8 1412 7 1433
-2z m-179 -1467 c8 -8 12 -54 12 -140 l0 -128 -550 0 -550 0 0 128 c0 86 4
132 12 140 17 17 1059 17 1076 0z m-1106 -285 c22 -20 23 -31 1 -55 -25 -28
-33 -22 -33 27 0 49 4 53 32 28z m1168 -29 c0 -39 -18 -45 -38 -13 -11 18 -11
24 4 40 22 25 34 16 34 -27z m-50 -179 l0 -140 -550 0 -550 0 0 140 0 140 550
0 550 0 0 -140z m-1100 -180 c0 -6 -10 -21 -23 -33 l-23 -22 -23 24 -23 24 23
31 23 31 23 -22 c13 -12 23 -27 23 -33z m1170 24 l22 -30 -23 -25 -23 -24 -23
22 c-13 12 -23 26 -23 32 0 8 39 56 46 56 1 0 12 -14 24 -31z m-940 -54 c-13
-14 -27 -25 -31 -25 -4 0 -14 11 -23 25 l-16 25 47 0 46 0 -23 -25z m694 0
c-9 -14 -19 -25 -23 -25 -4 0 -18 11 -31 25 l-23 25 46 0 47 0 -16 -25z m-764
-20 c0 -3 -12 -34 -26 -69 l-25 -64 -55 -4 -54 -3 0 73 0 72 80 0 c44 0 80 -2
80 -5z m940 -67 l0 -73 -54 3 -55 4 -25 64 c-14 35 -26 66 -26 69 0 3 36 5 80
5 l80 0 0 -72z m-1110 -116 c-17 -6 -44 24 -35 39 6 9 13 6 27 -12 14 -16 16
-25 8 -27z m1160 29 c0 -12 -29 -35 -36 -28 -11 10 5 37 21 37 8 0 15 -4 15
-9z"/>
<path d="M925 2451 c-11 -5 -29 -19 -40 -31 -18 -20 -20 -39 -23 -172 -4 -160
3 -197 42 -223 31 -22 1161 -22 1192 0 39 26 46 63 42 224 -3 149 -3 151 -31
178 l-27 28 -568 2 c-312 1 -576 -2 -587 -6z m1123 -218 l-3 -138 -545 0 -545
0 -3 138 -3 137 551 0 551 0 -3 -137z"/>
<path d="M1055 2260 c-15 -17 -16 -24 -7 -46 10 -21 18 -25 45 -22 27 2 33 8
35 31 6 53 -38 75 -73 37z"/>
<path d="M1241 2266 c-7 -8 -11 -27 -9 -43 2 -23 8 -29 35 -31 27 -3 35 1 45
22 9 22 8 29 -7 46 -21 24 -48 26 -64 6z"/>
<path d="M1517 2262 c-10 -10 -17 -25 -17 -33 0 -36 20 -39 232 -39 194 0 208
1 218 19 12 24 4 48 -21 61 -10 6 -103 10 -207 10 -170 0 -191 -2 -205 -18z"/>
<path d="M944 1900 c-26 -10 -72 -65 -80 -94 -3 -12 -4 -117 -2 -233 3 -196 5
-214 24 -240 47 -64 35 -63 614 -63 579 0 567 -1 614 63 19 26 21 44 24 244 3
234 1 251 -49 299 l-30 29 -547 2 c-301 1 -556 -2 -568 -7z m1094 -92 c17 -17
17 -419 0 -436 -16 -16 -1039 -17 -1069 -2 -18 10 -19 23 -19 218 0 149 3 211
12 220 17 17 1059 17 1076 0z"/>
<path d="M1685 1710 c-15 -17 -16 -24 -7 -45 l12 -25 148 0 c157 0 172 4 172
47 0 36 -30 43 -173 43 -121 0 -136 -2 -152 -20z"/>
<path d="M1050 1661 c-15 -30 -12 -113 6 -139 17 -24 43 -29 62 -10 16 16 16
140 0 156 -18 18 -56 14 -68 -7z"/>
<path d="M1242 1668 c-7 -7 -12 -40 -12 -78 0 -38 5 -71 12 -78 19 -19 46 -14
64 13 20 31 15 132 -7 146 -20 12 -43 11 -57 -3z"/>
<path d="M1422 1668 c-18 -18 -15 -133 4 -152 40 -41 74 -6 74 78 0 66 -11 86
-45 86 -12 0 -26 -5 -33 -12z"/>
<path d="M1682 1528 c-6 -6 -12 -20 -12 -29 0 -35 23 -40 181 -37 l154 3 0 35
0 35 -155 3 c-113 2 -159 -1 -168 -10z"/>
<path d="M1056 981 c-33 -37 5 -88 52 -70 29 11 31 63 3 79 -27 14 -35 13 -55
-9z"/>
<path d="M1248 989 c-25 -14 -24 -65 2 -79 44 -23 88 34 54 71 -19 21 -31 23
-56 8z"/>
<path d="M1519 982 c-22 -15 -25 -42 -7 -60 9 -9 71 -12 220 -12 197 0 208 1
218 20 12 23 -2 60 -23 60 -197 7 -392 3 -408 -8z"/>
<path d="M1056 614 c-19 -18 -20 -28 -6 -55 20 -37 80 -18 80 26 0 42 -44 59
-74 29z"/>
<path d="M1236 608 c-13 -19 -14 -25 -2 -43 17 -26 49 -31 70 -10 20 21 20 39
0 59 -22 22 -50 20 -68 -6z"/>
<path d="M1516 614 c-9 -8 -16 -22 -16 -29 0 -7 7 -21 16 -29 13 -14 47 -16
213 -16 179 0 199 2 214 18 22 24 21 35 -1 55 -27 25 -402 25 -426 1z"/>
</g>
</svg>
