<?xml version="1.0" encoding="iso-8859-1"?>
<!-- Generator: Adobe Illustrator 19.0.0, SVG Export Plug-In . SVG Version: 6.00 Build 0)  -->
<svg version="1.1" id="Layer_1" xmlns="http://www.w3.org/2000/svg" xmlns:xlink="http://www.w3.org/1999/xlink" x="0px" y="0px"
	 viewBox="0 0 512.072 512.072" style="enable-background:new 0 0 512.072 512.072;" xml:space="preserve">
<g transform="translate(-1)">
	<g>
		<g>
			<path d="M107.703,74.703c-11.776,0-21.333,9.557-21.333,21.333s9.557,21.333,21.333,21.333s21.333-9.557,21.333-21.333
				S119.479,74.703,107.703,74.703z"/>
			<path d="M406.369,74.703H193.036c-11.782,0-21.333,9.551-21.333,21.333c0,11.782,9.551,21.333,21.333,21.333h213.333
				c11.782,0,21.333-9.551,21.333-21.333C427.703,84.254,418.151,74.703,406.369,74.703z"/>
			<path d="M511.369,279.759c-0.01-0.024-0.021-0.048-0.031-0.072c-0.23-0.533-0.485-1.062-0.764-1.586
				c-0.062-0.118-0.122-0.238-0.186-0.355c-0.289-0.52-0.596-1.036-0.935-1.545l-0.038-0.057c-0.014-0.022-0.029-0.043-0.043-0.065
				l-34.697-52.045l34.697-52.045c0.015-0.021,0.029-0.043,0.043-0.065l0.038-0.057c0.339-0.509,0.646-1.025,0.935-1.545
				c0.065-0.117,0.124-0.237,0.186-0.355c0.279-0.524,0.534-1.053,0.764-1.586c0.01-0.024,0.021-0.047,0.031-0.072
				c1.305-3.05,1.827-6.219,1.666-9.304V32.036c0-11.782-9.551-21.333-21.333-21.333H22.369c-11.782,0-21.333,9.551-21.333,21.333
				v126.973c-0.16,3.085,0.362,6.253,1.666,9.303c0.01,0.025,0.022,0.049,0.032,0.074c0.23,0.532,0.484,1.06,0.763,1.583
				c0.063,0.119,0.122,0.24,0.187,0.357c0.289,0.52,0.596,1.036,0.935,1.544l0.037,0.056c0.015,0.022,0.029,0.044,0.044,0.067
				l34.696,52.044L4.7,276.08c-0.015,0.022-0.029,0.044-0.044,0.067l-0.037,0.056c-0.339,0.508-0.646,1.024-0.935,1.544
				c-0.065,0.118-0.125,0.238-0.187,0.357c-0.279,0.523-0.533,1.051-0.763,1.583c-0.011,0.025-0.022,0.049-0.032,0.074
				c-1.305,3.049-1.826,6.218-1.666,9.303v126.973c0,11.782,9.551,21.333,21.333,21.333h21.333v42.667
				c0,11.782,9.551,21.333,21.333,21.333h85.333c11.782,0,21.333-9.551,21.333-21.333v-42.667h170.667v42.667
				c0,11.782,9.551,21.333,21.333,21.333h85.333c11.782,0,21.333-9.551,21.333-21.333v-42.667h21.333
				c11.782,0,21.333-9.551,21.333-21.333V289.064C513.196,285.978,512.674,282.809,511.369,279.759z M437.619,202.703H76.453
				l-14.222-21.333h389.61L437.619,202.703z M76.453,245.369h361.166l14.222,21.333H62.231L76.453,245.369z M43.703,53.369h426.667
				v85.333H43.703V53.369z M129.036,458.703H86.369v-21.333h42.667V458.703z M427.703,458.703h-42.667v-21.333h42.667V458.703z
				 M470.369,394.703h-21.333h-85.333H150.369H65.036H43.703v-85.333h426.667V394.703z"/>
			<path d="M107.703,373.369c11.776,0,21.333-9.557,21.333-21.333s-9.557-21.333-21.333-21.333s-21.333,9.557-21.333,21.333
				S95.927,373.369,107.703,373.369z"/>
			<path d="M193.036,373.369h213.333c11.782,0,21.333-9.551,21.333-21.333s-9.551-21.333-21.333-21.333H193.036
				c-11.782,0-21.333,9.551-21.333,21.333S181.254,373.369,193.036,373.369z"/>
		</g>
	</g>
</g>
<g>
</g>
<g>
</g>
<g>
</g>
<g>
</g>
<g>
</g>
<g>
</g>
<g>
</g>
<g>
</g>
<g>
</g>
<g>
</g>
<g>
</g>
<g>
</g>
<g>
</g>
<g>
</g>
<g>
</g>
</svg>
