<?xml version="1.0" encoding="UTF-8" standalone="no"?>
<!DOCTYPE svg PUBLIC "-//W3C//DTD SVG 20010904//EN" "http://www.w3.org/TR/2001/REC-SVG-20010904/DTD/svg10.dtd">
<svg version="1.0" xmlns="http://www.w3.org/2000/svg" width="102.000000pt" height="98.000000pt" viewBox="0 0 102.000000 98.000000" preserveAspectRatio="xMidYMid meet">
<metadata>
Created by potrace 1.10, written by Peter Selinger 2001-2011
</metadata>
<g transform="translate(0.000000,98.000000) scale(0.100000,-0.100000)" fill="#000000" stroke="none">
<path d="M88 934 c-57 -30 -58 -39 -58 -444 0 -414 1 -419 66 -446 34 -14 43 -12 384 101 312 103 357 115 420 115 l70 0 0 230 0 230 -73 0 c-66 0 -104 11 -417 115 -190 63 -349 115 -355 115 -5 -1 -22 -7 -37 -16z m149 -259 c40 -22 73 -42 73 -45 0 -3 -8 -15 -18 -27 l-17 -22 -77 45 c-78 46 -89 59 -66 82 16 16 18 15 105 -33z m300 -27 l133 -52 0 -38 0 -38 75 0 75 0 0 -40 0 -40 -75 0 -75 0 0 -43 0 -42 -136 -53 c-100 -38 -140 -49 -149 -42 -58 48 -46 440 13 440 3 0 65 -23 139 -52z m-267 -178 l0 -30 -80 0 -80 0 0 30 0 30 80 0 80 0 0 -30z m25 -160 c-3 -5 -37 -27 -75 -49 l-70 -40 -16 25 c-9 13 -15 26 -13 28 2 1 36 22 74 45 l70 41 17 -21 c10 -12 16 -25 13 -29z"/>
</g>
</svg>