<?xml version="1.0" standalone="no"?>
<!DOCTYPE svg PUBLIC "-//W3C//DTD SVG 20010904//EN"
 "http://www.w3.org/TR/2001/REC-SVG-20010904/DTD/svg10.dtd">
<svg version="1.0" xmlns="http://www.w3.org/2000/svg"
 width="300.000000pt" height="122.000000pt" viewBox="0 0 300.000000 122.000000"
 preserveAspectRatio="xMidYMid meet">
<metadata>
Created by potrace 1.10, written by Peter Selinger 2001-2011
</metadata>
<g transform="translate(0.000000,122.000000) scale(0.100000,-0.100000)"
fill="#000000" stroke="none">
<path d="M578 790 c-78 -61 -153 -119 -165 -129 -23 -19 -23 -24 -23 -240 0
-208 1 -222 20 -241 20 -20 33 -20 1064 -20 l1045 0 20 26 c20 25 21 39 21
235 0 202 -1 209 -22 233 -13 13 -89 74 -170 135 l-148 111 -749 0 -749 0
-144 -110z m192 58 c0 -9 3 -9 12 0 16 16 1339 17 1369 2 13 -7 19 -7 19 0 0
5 7 10 15 10 15 0 245 -169 245 -181 0 -22 -68 14 -146 78 l-91 73 -724 1
-724 0 -92 -73 c-82 -65 -144 -99 -143 -80 1 12 232 182 246 182 8 0 14 -5 14
-12z m1496 -95 l83 -68 -439 -3 c-241 -1 -639 -1 -884 0 l-445 3 86 68 87 67
714 0 714 0 84 -67z m64 -103 c0 -5 7 -10 15 -10 11 0 15 -20 17 -102 2 -84 6
-103 18 -103 12 0 16 19 18 103 2 70 6 102 14 100 7 -3 10 -34 9 -92 -2 -94 9
-127 36 -104 11 8 14 34 12 102 -2 83 0 91 17 91 17 0 19 -10 22 -120 l3 -120
-38 0 -38 0 -3 -57 -3 -58 41 0 41 0 -3 -37 -3 -38 -1024 -3 c-564 -1 -1029 2
-1033 6 -9 9 -14 410 -5 418 3 3 330 5 727 5 l723 0 -2 -86 c-2 -88 8 -119 35
-108 11 4 14 28 14 104 0 132 18 129 22 -3 2 -84 6 -103 18 -103 12 0 16 19
18 103 2 80 6 102 17 102 11 0 15 -22 17 -102 2 -84 6 -103 18 -103 12 0 16
19 18 103 4 132 22 135 22 3 0 -78 3 -100 15 -104 24 -10 30 13 30 107 0 61 4
90 12 93 9 3 13 -23 15 -99 2 -84 6 -103 18 -103 12 0 16 19 18 103 2 76 6
102 15 99 8 -2 12 -32 12 -93 1 -96 7 -117 31 -107 13 5 15 22 12 104 -2 73 0
99 9 99 9 0 13 -30 15 -102 2 -84 6 -103 18 -103 12 0 16 19 18 104 2 88 1
103 -12 98 -10 -4 -13 -1 -9 9 6 16 23 19 23 4z m150 -310 c0 -16 -4 -30 -10
-30 -5 0 -10 14 -10 30 0 17 5 30 10 30 6 0 10 -13 10 -30z"/>
<path d="M500 551 c-5 -11 -10 -36 -10 -55 0 -30 4 -36 21 -36 11 0 17 -4 14
-10 -3 -5 1 -10 9 -10 9 0 16 -9 16 -20 0 -17 7 -20 41 -20 30 0 40 4 36 14
-5 13 25 46 43 46 14 0 12 84 -2 98 -7 7 -41 12 -85 12 -61 0 -74 -3 -83 -19z
m150 -31 c0 -11 -7 -20 -15 -20 -8 0 -15 -7 -15 -15 0 -8 -7 -15 -15 -15 -8 0
-16 -10 -16 -22 l-2 -23 -4 23 c-2 12 -9 22 -14 22 -5 0 -9 7 -9 15 0 8 -7 15
-15 15 -8 0 -15 9 -15 20 0 18 7 20 60 20 53 0 60 -2 60 -20z"/>
<path d="M702 558 c-18 -18 -16 -98 3 -98 8 0 15 -4 15 -10 0 -5 7 -10 15 -10
8 0 15 -9 15 -20 0 -16 7 -20 35 -20 28 0 35 4 35 20 0 11 4 20 10 20 5 0 18
7 28 15 14 13 17 25 12 63 l-5 47 -75 3 c-50 2 -79 -1 -88 -10z m141 -38 c4
-15 0 -20 -14 -20 -10 0 -19 -7 -19 -15 0 -8 -4 -15 -10 -15 -5 0 -11 -10 -11
-22 l-2 -23 -4 23 c-2 12 -11 22 -19 22 -8 0 -14 7 -14 15 0 8 -7 15 -15 15
-8 0 -15 9 -15 20 0 18 7 20 59 20 50 0 59 -3 64 -20z"/>
<path d="M897 563 c-12 -11 -8 -103 4 -103 16 0 39 -26 39 -44 0 -12 10 -16
40 -16 30 0 40 4 40 16 0 18 23 44 39 44 15 0 14 83 -1 98 -13 13 -149 17
-161 5z m143 -43 c0 -11 -7 -20 -15 -20 -8 0 -15 -7 -15 -15 0 -8 -4 -15 -10
-15 -5 0 -10 -9 -10 -20 0 -11 -4 -20 -10 -20 -5 0 -10 9 -10 20 0 11 -4 20
-10 20 -5 0 -10 7 -10 15 0 8 -7 15 -15 15 -8 0 -15 9 -15 20 0 18 7 20 60 20
53 0 60 -2 60 -20z"/>
<path d="M1094 559 c-4 -6 -8 -31 -10 -55 -2 -33 1 -44 12 -44 8 0 14 -4 14
-10 0 -5 7 -10 15 -10 8 0 15 -9 15 -20 0 -16 7 -20 35 -20 28 0 35 4 35 20 0
11 7 20 15 20 8 0 15 5 15 10 0 6 7 10 15 10 19 0 21 80 3 98 -16 16 -154 16
-164 1z m144 -41 c2 -11 -3 -18 -12 -18 -9 0 -16 -7 -16 -15 0 -8 -7 -15 -15
-15 -8 0 -16 -10 -16 -22 l-2 -23 -4 23 c-2 12 -9 22 -14 22 -5 0 -9 7 -9 15
0 8 -9 15 -20 15 -20 0 -27 20 -13 34 4 4 32 6 63 4 43 -2 56 -7 58 -20z"/>
<path d="M1292 558 c-15 -15 -16 -98 -1 -98 16 0 39 -26 39 -44 0 -12 10 -16
40 -16 33 0 40 3 40 20 0 11 7 20 16 20 8 0 12 5 9 10 -3 6 1 10 10 10 13 0
15 10 13 53 l-3 52 -75 3 c-50 2 -79 -1 -88 -10z m138 -38 c0 -11 -7 -20 -15
-20 -8 0 -15 -7 -15 -15 0 -8 -4 -15 -10 -15 -5 0 -10 -9 -10 -21 0 -11 -4
-18 -10 -14 -5 3 -7 12 -3 20 3 9 -1 15 -11 15 -9 0 -16 7 -16 16 0 10 -6 14
-15 10 -11 -4 -15 1 -15 19 0 24 3 25 60 25 53 0 60 -2 60 -20z"/>
<path d="M1487 563 c-4 -3 -7 -28 -7 -55 0 -37 4 -48 16 -48 8 0 12 -4 9 -10
-3 -5 1 -10 9 -10 9 0 16 -9 16 -20 0 -17 7 -20 40 -20 30 0 40 4 40 16 0 18
23 44 39 44 15 0 14 83 -1 98 -13 13 -149 17 -161 5z m143 -43 c0 -11 -7 -20
-15 -20 -8 0 -15 -7 -15 -15 0 -8 -7 -15 -16 -15 -10 0 -14 -6 -11 -15 4 -8 2
-17 -3 -20 -6 -4 -10 3 -10 14 0 12 -4 21 -10 21 -5 0 -10 7 -10 15 0 8 -7 15
-15 15 -8 0 -15 9 -15 20 0 18 7 20 60 20 53 0 60 -2 60 -20z"/>
<path d="M1682 558 c-18 -18 -16 -98 3 -98 8 0 15 -4 15 -10 0 -5 7 -10 15
-10 8 0 15 -9 15 -20 0 -16 7 -20 35 -20 28 0 35 4 35 20 0 11 7 20 15 20 8 0
15 5 15 10 0 6 7 10 15 10 19 0 21 80 3 98 -16 16 -150 16 -166 0z m144 -40
c1 -12 -4 -18 -17 -18 -10 0 -19 -7 -19 -15 0 -8 -4 -15 -10 -15 -5 0 -11 -10
-11 -22 l-2 -23 -4 23 c-2 12 -11 22 -19 22 -8 0 -14 7 -14 15 0 8 -7 15 -15
15 -15 0 -20 21 -8 34 4 4 32 6 62 4 43 -2 55 -7 57 -20z"/>
<path d="M2229 391 c-2 -6 -2 -34 0 -61 l3 -51 37 3 36 3 0 55 0 55 -36 3
c-21 2 -39 -2 -40 -7z m51 -57 c0 -13 -4 -24 -10 -24 -5 0 -10 14 -10 31 0 17
4 28 10 24 6 -3 10 -17 10 -31z"/>
<path d="M2337 394 c-4 -4 -7 -31 -7 -61 l0 -53 40 0 41 0 -3 58 c-3 55 -4 57
-33 60 -17 2 -34 0 -38 -4z m43 -54 c0 -16 -4 -30 -10 -30 -5 0 -10 14 -10 30
0 17 5 30 10 30 6 0 10 -13 10 -30z"/>
<path d="M502 368 c-7 -7 -12 -32 -12 -55 0 -36 3 -43 18 -41 9 2 16 -3 15 -9
-2 -7 4 -13 12 -13 8 0 15 -8 15 -17 0 -14 8 -18 35 -18 27 0 35 4 35 18 0 9
7 17 15 17 8 0 15 7 15 16 0 10 6 14 15 10 12 -4 15 3 15 37 0 24 -5 48 -12
55 -7 7 -41 12 -83 12 -42 0 -76 -5 -83 -12z m148 -38 c0 -11 -7 -20 -15 -20
-8 0 -15 -7 -15 -15 0 -8 -7 -15 -16 -15 -10 0 -14 -6 -11 -15 4 -8 2 -17 -3
-20 -6 -4 -10 3 -10 14 0 12 -4 21 -10 21 -5 0 -10 7 -10 15 0 8 -7 15 -15 15
-8 0 -15 9 -15 20 0 18 7 20 60 20 53 0 60 -2 60 -20z"/>
<path d="M702 368 c-7 -7 -12 -31 -12 -55 0 -34 3 -41 15 -37 9 4 15 0 15 -10
0 -9 7 -16 15 -16 8 0 15 -8 15 -17 0 -14 8 -18 35 -18 27 0 35 4 35 18 0 9 7
17 15 17 8 0 15 7 15 15 0 8 5 14 12 13 8 -2 11 11 9 42 -2 25 -5 48 -8 52 -7
13 -148 9 -161 -4z m141 -38 c4 -15 0 -20 -14 -20 -10 0 -19 -7 -19 -15 0 -8
-4 -15 -10 -15 -5 0 -11 -10 -11 -22 l-2 -23 -4 23 c-2 12 -11 22 -19 22 -8 0
-14 7 -14 15 0 8 -7 15 -15 15 -8 0 -15 9 -15 20 0 18 7 20 59 20 50 0 59 -3
64 -20z"/>
<path d="M897 374 c-10 -10 -9 -106 1 -100 9 6 42 -29 42 -44 0 -6 18 -10 40
-10 29 0 40 4 40 15 0 8 5 15 10 15 6 0 10 7 10 16 0 10 5 14 16 10 13 -5 15
3 12 47 l-3 52 -80 3 c-45 1 -84 0 -88 -4z m143 -44 c0 -11 -7 -20 -15 -20 -8
0 -15 -7 -15 -15 0 -8 -4 -15 -10 -15 -5 0 -10 -7 -10 -15 0 -8 -4 -15 -10
-15 -5 0 -10 7 -10 15 0 8 -4 15 -10 15 -5 0 -10 7 -10 15 0 8 -7 15 -15 15
-8 0 -15 9 -15 20 0 18 7 20 60 20 53 0 60 -2 60 -20z"/>
<path d="M1092 363 c-13 -27 -8 -88 6 -85 7 1 12 -5 12 -13 0 -8 7 -15 15 -15
8 0 15 -8 15 -17 0 -14 8 -18 35 -18 27 0 35 4 35 18 0 9 7 17 15 17 8 0 15 7
15 15 0 8 6 14 13 13 16 -4 22 69 6 88 -8 10 -33 14 -85 14 -60 0 -75 -3 -82
-17z m148 -33 c0 -13 -7 -20 -20 -20 -13 0 -18 -5 -14 -15 4 -9 0 -15 -10 -15
-10 0 -17 -9 -17 -22 l-2 -23 -4 23 c-2 12 -9 22 -14 22 -5 0 -9 7 -9 15 0 8
-9 15 -20 15 -19 0 -27 20 -13 33 3 4 33 7 65 7 51 0 58 -2 58 -20z"/>
<path d="M1292 368 c-6 -6 -12 -31 -12 -55 0 -34 3 -41 15 -37 9 4 15 0 15
-10 0 -9 5 -16 10 -16 6 0 10 -6 10 -14 0 -9 14 -15 40 -18 33 -3 40 0 40 14
0 10 7 18 15 18 8 0 14 6 13 13 -2 6 3 11 10 9 10 -2 12 11 10 50 l-3 53 -75
3 c-50 2 -79 -1 -88 -10z m138 -38 c0 -11 -7 -20 -15 -20 -8 0 -15 -7 -15 -15
0 -8 -4 -15 -10 -15 -5 0 -10 -9 -10 -21 0 -11 -4 -18 -10 -14 -5 3 -7 12 -3
20 3 9 -1 15 -11 15 -9 0 -16 7 -16 15 0 8 -7 15 -15 15 -8 0 -15 9 -15 20 0
18 7 20 60 20 53 0 60 -2 60 -20z"/>
<path d="M1487 373 c-10 -9 -9 -105 1 -99 9 6 42 -29 42 -44 0 -6 18 -10 40
-10 29 0 40 4 40 15 0 8 5 15 10 15 6 0 10 7 10 16 0 10 6 14 15 10 12 -4 15
3 15 37 0 24 -5 48 -12 55 -13 13 -149 17 -161 5z m143 -43 c0 -11 -7 -20 -15
-20 -8 0 -15 -7 -15 -15 0 -8 -7 -15 -16 -15 -10 0 -14 -6 -11 -15 4 -8 2 -17
-3 -20 -6 -4 -10 3 -10 14 0 12 -4 21 -10 21 -5 0 -10 7 -10 15 0 8 -7 15 -15
15 -8 0 -15 9 -15 20 0 18 7 20 60 20 53 0 60 -2 60 -20z"/>
<path d="M1682 368 c-7 -7 -12 -31 -12 -55 0 -34 3 -41 15 -37 9 4 15 0 15
-10 0 -9 7 -16 15 -16 8 0 15 -8 15 -17 0 -14 8 -18 35 -18 27 0 35 4 35 18 0
9 7 17 15 17 8 0 15 7 15 15 0 9 6 12 16 8 13 -5 15 1 11 40 -3 25 -8 50 -12
56 -9 15 -148 14 -163 -1z m146 -40 c2 -13 -3 -18 -17 -18 -12 0 -21 -6 -21
-15 0 -8 -4 -15 -10 -15 -5 0 -11 -10 -11 -22 l-2 -23 -4 23 c-2 12 -11 22
-20 22 -9 0 -13 6 -9 15 4 10 -1 15 -14 15 -13 0 -20 7 -20 20 0 19 5 21 62
18 50 -2 63 -6 66 -20z"/>
<path d="M1882 368 c-7 -7 -12 -24 -12 -38 0 -34 17 -50 52 -50 20 0 32 7 40
25 22 48 -43 100 -80 63z m52 -33 c3 -9 -1 -18 -10 -22 -19 -7 -28 2 -21 22 8
19 23 19 31 0z"/>
<path d="M2002 368 c-19 -19 -14 -65 9 -82 49 -34 106 36 63 78 -18 19 -55 21
-72 4z m53 -39 c0 -7 -8 -15 -17 -17 -18 -3 -25 18 -11 32 10 10 28 1 28 -15z"/>
<path d="M2126 364 c-19 -18 -21 -55 -4 -72 15 -15 61 -15 76 0 28 28 2 88
-38 88 -10 0 -26 -7 -34 -16z m50 -25 c10 -17 -13 -36 -27 -22 -12 12 -4 33
11 33 5 0 12 -5 16 -11z"/>
</g>
</svg>
